<svg width="24" height="24" viewBox="3 -3.5 24 24" fill="none" xmlns="http://www.w3.org/2000/svg">
<path d="M6.04651 17C5.48372 17 5.00194 16.7919 4.60116 16.3758C4.20039 15.9596 4 15.4594 4 14.875V2.125C4 1.54063 4.20039 1.04036 4.60116 0.624219C5.00194 0.208073 5.48372 0 6.04651 0H12.186L14.2326 2.125H22.4186C22.9814 2.125 23.4632 2.33307 23.864 2.74922C24.2647 3.16536 24.4651 3.66563 24.4651 4.25H13.3884L11.3419 2.125H6.04651V14.875L8.50233 6.375H26L23.3651 15.4859C23.2287 15.9464 22.9771 16.3138 22.6105 16.5883C22.2438 16.8628 21.8388 17 21.3953 17H6.04651ZM8.19535 14.875H21.3953L23.2372 8.5H10.0372L8.19535 14.875Z" fill="white"/>
</svg>
