<svg width="48" height="48" viewBox="0 0 48 48" fill="none" xmlns="http://www.w3.org/2000/svg">
<g clip-path="url(#clip0_412_27)">
<path d="M33 0H15C6.71573 0 0 6.71573 0 15V33C0 41.2843 6.71573 48 15 48H33C41.2843 48 48 41.2843 48 33V15C48 6.71573 41.2843 0 33 0Z" fill="#DA1C1C" fill-opacity="0.2"/>
<path d="M16.8 35.9V34.7V33.5H22.8V20.09C22.28 19.91 21.83 19.63 21.45 19.25C21.07 18.87 20.79 18.42 20.61 17.9H16.8L20.4 26.3C20.4 27.3 19.99 28.15 19.17 28.85C18.35 29.55 17.36 29.9 16.2 29.9C15.04 29.9 14.05 29.55 13.23 28.85C12.41 28.15 12 27.3 12 26.3L15.6 17.9H13.2V15.5H20.61C20.85 14.8 21.28 14.225 21.9 13.775C22.52 13.325 23.22 13.1 24 13.1C24.78 13.1 25.48 13.325 26.1 13.775C26.72 14.225 27.15 14.8 27.39 15.5H34.8V17.9H32.4L36 26.3C36 27.3 35.59 28.15 34.77 28.85C33.95 29.55 32.96 29.9 31.8 29.9C30.64 29.9 29.65 29.55 28.83 28.85C28.01 28.15 27.6 27.3 27.6 26.3L31.2 17.9H27.39C27.21 18.42 26.93 18.87 26.55 19.25C26.17 19.63 25.72 19.91 25.2 20.09V33.5H31.2V34.7V35.9H16.8ZM29.55 26.3H34.05L31.8 21.08L29.55 26.3ZM13.95 26.3H18.45L16.2 21.08L13.95 26.3ZM24 17.9C24.34 17.9 24.625 17.785 24.855 17.555C25.085 17.325 25.2 17.04 25.2 16.7C25.2 16.36 25.085 16.075 24.855 15.845C24.625 15.615 24.34 15.5 24 15.5C23.66 15.5 23.375 15.615 23.145 15.845C22.915 16.075 22.8 16.36 22.8 16.7C22.8 17.04 22.915 17.325 23.145 17.555C23.375 17.785 23.66 17.9 24 17.9Z" fill="#DA1C1C"/>
</g>
<defs>
<clipPath id="clip0_412_27">
<rect width="48" height="48" fill="white"/>
</clipPath>
</defs>
</svg>
