<svg width="20" height="18" viewBox="0 0 20 18" fill="none" xmlns="http://www.w3.org/2000/svg">
<path d="M0 18V2.11765C0 1.53529 0.20614 1.03676 0.618421 0.622059C1.0307 0.207353 1.52632 0 2.10526 0H14.7368C15.3158 0 15.8114 0.207353 16.2237 0.622059C16.636 1.03676 16.8421 1.53529 16.8421 2.11765V7.49118C16.6667 7.45588 16.4912 7.43382 16.3158 7.425C16.1404 7.41618 15.9649 7.41176 15.7895 7.41176C15.614 7.41176 15.4386 7.41618 15.2632 7.425C15.0877 7.43382 14.9123 7.45588 14.7368 7.49118V2.11765H2.10526V12.7059H9.55263C9.51754 12.8824 9.49561 13.0588 9.48684 13.2353C9.47807 13.4118 9.47368 13.5882 9.47368 13.7647C9.47368 13.9412 9.47807 14.1176 9.48684 14.2941C9.49561 14.4706 9.51754 14.6471 9.55263 14.8235H3.15789L0 18ZM4.21053 6.35294H12.6316V4.23529H4.21053V6.35294ZM4.21053 10.5882H9.47368V8.47059H4.21053V10.5882ZM14.7368 18V14.8235H11.5789V12.7059H14.7368V9.52941H16.8421V12.7059H20V14.8235H16.8421V18H14.7368Z" fill="#7F909E"/>
</svg>
