<svg width="18" height="19" viewBox="0 0 18 19" fill="none" xmlns="http://www.w3.org/2000/svg">
<path d="M10.6773 16.7054C9.45167 17.9311 7.97853 18.5439 6.2579 18.5439C4.53728 18.5439 3.06414 17.9311 1.83848 16.7054C0.612833 15.4798 6.94667e-06 14.0066 6.94667e-06 12.286C6.94667e-06 10.5654 0.612833 9.09225 1.83848 7.86659L8.37922 1.32586C9.26311 0.441973 10.3238 3.07558e-05 11.5612 3.07558e-05C12.7986 3.07558e-05 13.8593 0.441972 14.7432 1.32586C15.6271 2.20974 16.069 3.2704 16.069 4.50784C16.069 5.74527 15.6271 6.80593 14.7432 7.68982L8.556 13.877C8.01388 14.4191 7.3657 14.6902 6.61146 14.6902C5.85721 14.6902 5.20903 14.4191 4.66691 13.877C4.1248 13.3349 3.85374 12.6867 3.85374 11.9325C3.85374 11.1782 4.1248 10.53 4.66691 9.98791L11.2076 3.44718L12.6219 4.86139L6.08113 11.4021C5.92792 11.5553 5.85132 11.7321 5.85132 11.9325C5.85132 12.1328 5.92792 12.3096 6.08113 12.4628C6.23433 12.616 6.41111 12.6926 6.61146 12.6926C6.8118 12.6926 6.98858 12.616 7.14179 12.4628L13.329 6.2756C13.8122 5.76884 14.0567 5.17664 14.0626 4.499C14.0685 3.82135 13.8239 3.23504 13.329 2.74007C12.834 2.24509 12.2447 1.99761 11.5612 1.99761C10.8777 1.99761 10.2884 2.24509 9.79344 2.74007L3.2527 9.28081C2.40417 10.1058 1.98285 11.1046 1.98874 12.2772C1.99464 13.4498 2.41596 14.4545 3.2527 15.2912C4.07766 16.1162 5.07055 16.5257 6.23139 16.5198C7.39222 16.5139 8.40279 16.1044 9.26311 15.2912L16.1574 8.39692L17.5716 9.81114L10.6773 16.7054Z" fill="#7F909E"/>
</svg>
