<svg width="20" height="20" viewBox="0 0 20 20" fill="none" xmlns="http://www.w3.org/2000/svg">
<path d="M0 10V6H2V10H0ZM0 20V12H2V15.125L3.15 14H6V16H4L0 20ZM8 16V14H12V16H8ZM14 16V14H18V12H20V14C20 14.55 19.8042 15.0208 19.4125 15.4125C19.0208 15.8042 18.55 16 18 16H14ZM18 10V6H20V10H18ZM18 4.025V2H14V0H18C18.55 0 19.0208 0.195833 19.4125 0.5875C19.8042 0.979167 20 1.45 20 2V4.025H18ZM8 2V0H12V2H8ZM0 4.025V2C0 1.45 0.195833 0.979167 0.5875 0.5875C0.979167 0.195833 1.45 0 2 0H6V2H2V4.025H0Z" fill="#7F909E"/>
</svg>
