<svg width="48" height="48" viewBox="0 0 48 48" fill="none" xmlns="http://www.w3.org/2000/svg">
<g clip-path="url(#clip0_205_36)">
<path d="M33 0H15C6.71573 0 0 6.71573 0 15V33C0 41.2843 6.71573 48 15 48H33C41.2843 48 48 41.2843 48 33V15C48 6.71573 41.2843 0 33 0Z" fill="#EBCC19" fill-opacity="0.2"/>
<path d="M17 34C16.1667 34 15.4583 33.7083 14.875 33.125C14.2917 32.5417 14 31.8333 14 31V28H17V14H32V31C32 31.8333 31.7083 32.5417 31.125 33.125C30.5417 33.7083 29.8333 34 29 34H17ZM29 32C29.2833 32 29.5208 31.9042 29.7125 31.7125C29.9042 31.5208 30 31.2833 30 31V16H19V28H28V31C28 31.2833 28.0958 31.5208 28.2875 31.7125C28.4792 31.9042 28.7167 32 29 32ZM20 21V19H29V21H20ZM20 24V22H29V24H20ZM17 32H26V30H16V31C16 31.2833 16.0958 31.5208 16.2875 31.7125C16.4792 31.9042 16.7167 32 17 32ZM17 32H16H26H17Z" fill="#EBCC19"/>
</g>
<defs>
<clipPath id="clip0_205_36">
<rect width="48" height="48" fill="white"/>
</clipPath>
</defs>
</svg>
