<svg width="48" height="48" viewBox="0 0 48 48" fill="none" xmlns="http://www.w3.org/2000/svg">
<g clip-path="url(#clip0_412_8)">
<path d="M33 0H15C6.71573 0 0 6.71573 0 15V33C0 41.2843 6.71573 48 15 48H33C41.2843 48 48 41.2843 48 33V15C48 6.71573 41.2843 0 33 0Z" fill="#0C4E8D" fill-opacity="0.2"/>
<path d="M22.5 12H21V36H22.5V12Z" fill="#0C4E8D"/>
<path d="M25.5 12H24V36H25.5V12Z" fill="#0C4E8D"/>
<path d="M18.2109 30.1407C20.0157 31.0312 21.9492 31.4766 24.0117 31.4766C26.5508 31.4766 27.8204 30.3202 27.8204 28.0078C27.8204 27.2578 27.6173 26.6523 27.2109 26.1913C26.8125 25.7226 26.082 25.3554 25.0196 25.0899L21.5742 24.2226C18.9414 23.5585 17.625 22.1523 17.625 20.0038C17.625 18.3555 18.1914 17.1328 19.3242 16.3359C20.457 15.5313 22.0235 15.1288 24.0234 15.1288C25.0703 15.1288 26.0508 15.2422 26.9649 15.4687C27.8789 15.6952 28.6446 16 29.2617 16.3828L28.6758 18.0351C28.1523 17.746 27.4571 17.4883 26.5899 17.2617C25.7304 17.0352 24.8594 16.9218 23.9766 16.9218C21.1485 16.9218 19.7343 17.9023 19.7343 19.8633C19.7343 20.5273 19.9493 21.0625 20.3789 21.4687C20.8164 21.8671 21.4688 22.1718 22.3359 22.3828L25.6289 23.1796C27.0351 23.5156 28.1016 24.0547 28.8282 24.7968C29.5547 25.5312 29.918 26.5782 29.918 27.9375C29.918 29.7031 29.375 31.0351 28.2891 31.9336C27.2109 32.8242 25.7423 33.2695 23.8829 33.2695C22.4922 33.2695 21.254 33.1288 20.168 32.8476C19.0899 32.5585 18.2343 32.2188 17.6016 31.8282L18.2109 30.1407Z" fill="#0C4E8D"/>
</g>
<defs>
<clipPath id="clip0_412_8">
<rect width="48" height="48" fill="white"/>
</clipPath>
</defs>
</svg>
