<svg width="48" height="48" viewBox="0 0 48 48" fill="none" xmlns="http://www.w3.org/2000/svg">
<g clip-path="url(#clip0_412_41)">
<path d="M33 0H15C6.71573 0 0 6.71573 0 15V33C0 41.2843 6.71573 48 15 48H33C41.2843 48 48 41.2843 48 33V15C48 6.71573 41.2843 0 33 0Z" fill="#933DD4" fill-opacity="0.2"/>
<path d="M32.64 25.925V23.075H38.4V25.925H32.64ZM34.368 35.9L29.76 32.48L31.488 30.2L36.096 33.62L34.368 35.9ZM31.488 18.8L29.76 16.52L34.368 13.1L36.096 15.38L31.488 18.8ZM13.92 34.475V28.775H12.48C11.688 28.775 11.01 28.4959 10.446 27.9378C9.88201 27.3797 9.60001 26.7087 9.60001 25.925V23.075C9.60001 22.2912 9.88201 21.6203 10.446 21.0622C11.01 20.504 11.688 20.225 12.48 20.225H18.24L25.44 15.95V33.05L18.24 28.775H16.8V34.475H13.92ZM22.56 27.9912V21.0087L19.032 23.075H12.48V25.925H19.032L22.56 27.9912ZM26.88 29.2737V19.7262C27.528 20.2962 28.05 20.9909 28.446 21.8103C28.842 22.6297 29.04 23.5262 29.04 24.5C29.04 25.4737 28.842 26.3703 28.446 27.1897C28.05 28.009 27.528 28.7037 26.88 29.2737Z" fill="#933DD4"/>
</g>
<defs>
<clipPath id="clip0_412_41">
<rect width="48" height="48" fill="white"/>
</clipPath>
</defs>
</svg>
