<svg width="20" height="20" viewBox="0 0 20 20" fill="none" xmlns="http://www.w3.org/2000/svg">
<path d="M8.66122 0C8.05259 0 7.53259 0.438274 7.42987 1.03782L7.16531 2.57457C7.02621 2.62776 6.88749 2.6828 6.75249 2.74325L5.48118 1.84482C4.923 1.45891 4.26516 1.60015 3.87607 1.98242L1.98242 3.87518C1.55197 4.30563 1.49479 4.98302 1.8457 5.48029L2.74325 6.75249C2.68234 6.88749 2.62776 7.02533 2.57457 7.16442L1.03782 7.42898C0.43782 7.53216 0 8.05259 0 8.66122V11.3388C0 11.9474 0.438274 12.4674 1.03782 12.5701L2.57457 12.8347C2.62776 12.9738 2.6828 13.1125 2.74325 13.2475L1.84482 14.5188C1.49391 15.0156 1.55197 15.6935 1.98242 16.1239L3.87518 18.0176C4.36791 18.4994 5.05665 18.4611 5.48029 18.1543L6.75249 17.2567C6.88749 17.3177 7.02533 17.3722 7.16442 17.4254L7.42898 18.9622C7.53216 19.5622 8.05259 20 8.66122 20H11.3388C11.9474 20 12.4674 19.5617 12.5701 18.9622L12.8347 17.4254C12.9738 17.3722 13.1125 17.3172 13.2475 17.2567L14.5188 18.1552C14.8938 18.4315 15.6108 18.5312 16.1239 18.0176L18.0176 16.1248C18.448 15.6944 18.5052 15.017 18.1543 14.5197L17.2567 13.2475C17.3177 13.1125 17.3722 12.9747 17.4254 12.8356L18.9622 12.571C19.5622 12.4678 20 11.9474 20 11.3388V8.66122C20 8.05259 19.5617 7.53259 18.9622 7.42987L17.4254 7.16531C17.3722 7.02621 17.3172 6.88749 17.2567 6.75249L18.1552 5.48118C18.5061 4.98436 18.448 4.30652 18.0176 3.87607L16.1248 1.98242C15.6444 1.51333 14.9783 1.52343 14.5197 1.8457L13.2475 2.74325C13.1125 2.68234 12.9747 2.62776 12.8356 2.57457L12.571 1.03782C12.4678 0.43782 11.9474 0 11.3388 0H8.66122ZM9.18857 1.81818H10.8123C10.84 1.81818 10.8637 1.83796 10.8683 1.86523L11.2189 3.90447C12.0226 4.19311 12.7749 4.49734 13.4499 4.82688L15.1376 3.63459C15.1603 3.61868 15.1917 3.62126 15.2113 3.6408L16.3592 4.7896C16.3787 4.80914 16.3822 4.83967 16.3663 4.86239L15.1731 6.55096C15.5181 7.2805 15.8292 8.02244 16.0955 8.78107L18.1348 9.13264C18.162 9.13718 18.1818 9.16084 18.1818 9.18857V10.8123C18.1818 10.84 18.1616 10.8637 18.1339 10.8683L16.0955 11.2189C15.8296 11.9776 15.5222 12.7208 15.1731 13.4499L16.3663 15.1385C16.3822 15.1612 16.3787 15.1917 16.3592 15.2113L15.2113 16.3601C15.1917 16.3796 15.1603 16.3822 15.1376 16.3663L13.4499 15.174C12.7045 15.5245 11.9607 15.8314 11.2189 16.0964L10.8674 18.1348C10.8628 18.162 10.8392 18.1818 10.8114 18.1818H9.18768C9.15995 18.1818 9.13629 18.1616 9.13175 18.1339L8.78107 16.0955C8.04971 15.8414 7.30689 15.5386 6.55007 15.1731L4.86151 16.3663C4.83878 16.3822 4.80825 16.3787 4.78871 16.3592L3.63991 15.2113C3.62037 15.1917 3.61779 15.1603 3.6337 15.1376L4.82599 13.4499C4.4719 12.6931 4.1645 11.9494 3.90359 11.2189L1.86523 10.8674C1.83796 10.8628 1.81818 10.8392 1.81818 10.8114V9.18768C1.81818 9.15995 1.83796 9.13675 1.86523 9.13175L3.90447 8.78018C4.16857 8.03655 4.47143 7.29325 4.82688 6.55007L3.6337 4.86151C3.61779 4.83878 3.62126 4.80825 3.6408 4.78871L4.78871 3.63991C4.80825 3.62037 4.83967 3.61779 4.86239 3.6337L6.55007 4.82599C7.25371 4.48827 7.99971 4.18268 8.78107 3.90359L9.13264 1.86523C9.13718 1.83796 9.16084 1.81818 9.18857 1.81818ZM10 5.90909C7.74045 5.90909 5.90909 7.74045 5.90909 10C5.90909 12.2595 7.74045 14.0909 10 14.0909C12.2595 14.0909 14.0909 12.2595 14.0909 10C14.0909 7.74045 12.2595 5.90909 10 5.90909ZM10 7.72727C11.255 7.72727 12.2727 8.745 12.2727 10C12.2727 11.255 11.255 12.2727 10 12.2727C8.745 12.2727 7.72727 11.255 7.72727 10C7.72727 8.745 8.745 7.72727 10 7.72727Z" fill="#7F909E"/>
</svg>
