<svg width="48" height="48" viewBox="0 0 48 48" fill="none" xmlns="http://www.w3.org/2000/svg">
<g clip-path="url(#clip0_412_17)">
<path d="M33 0H15C6.71573 0 0 6.71573 0 15V33C0 41.2843 6.71573 48 15 48H33C41.2843 48 48 41.2843 48 33V15C48 6.71573 41.2843 0 33 0Z" fill="#1FB141" fill-opacity="0.1"/>
<path d="M21.6 30C20.94 30 20.375 29.765 19.905 29.295C19.435 28.825 19.2 28.26 19.2 27.6V26.1C18.06 25.32 17.175 24.32 16.545 23.1C15.915 21.88 15.6 20.58 15.6 19.2C15.6 16.86 16.415 14.875 18.045 13.245C19.675 11.615 21.66 10.8 24 10.8C26.34 10.8 28.325 11.615 29.955 13.245C31.585 14.875 32.4 16.86 32.4 19.2C32.4 20.58 32.085 21.875 31.455 23.085C30.825 24.295 29.94 25.3 28.8 26.1V27.6C28.8 28.26 28.565 28.825 28.095 29.295C27.625 29.765 27.06 30 26.4 30H21.6ZM21.6 27.6H26.4V24.84L27.42 24.12C28.24 23.56 28.875 22.845 29.325 21.975C29.775 21.105 30 20.18 30 19.2C30 17.54 29.415 16.125 28.245 14.955C27.075 13.785 25.66 13.2 24 13.2C22.34 13.2 20.925 13.785 19.755 14.955C18.585 16.125 18 17.54 18 19.2C18 20.18 18.225 21.105 18.675 21.975C19.125 22.845 19.76 23.56 20.58 24.12L21.6 24.84V27.6Z" fill="#1FB141"/>
<path d="M20.4 31.2H27.6C27.6 32.5255 26.5254 33.6 25.2 33.6H22.8C21.4745 33.6 20.4 32.5255 20.4 31.2Z" fill="#1FB141"/>
<path d="M21.6 34.8H26.4C26.4 36.1255 25.3255 37.2 24 37.2C22.6745 37.2 21.6 36.1255 21.6 34.8Z" fill="#1FB141"/>
</g>
<defs>
<clipPath id="clip0_412_17">
<rect width="48" height="48" fill="white"/>
</clipPath>
</defs>
</svg>
