<svg width="48" height="48" viewBox="0 0 48 48" fill="none" xmlns="http://www.w3.org/2000/svg">
<g clip-path="url(#clip0_412_34)">
<path d="M33 0H15C6.71573 0 0 6.71573 0 15V33C0 41.2843 6.71573 48 15 48H33C41.2843 48 48 41.2843 48 33V15C48 6.71573 41.2843 0 33 0Z" fill="#EBCC19" fill-opacity="0.2"/>
<path d="M16.3099 21.5609L18.6445 22.5475C18.9238 21.9894 19.2131 21.4513 19.5124 20.9332C19.8117 20.415 20.141 19.8968 20.5001 19.3786L18.824 19.0498L16.3099 21.5609ZM20.56 24.0422L23.972 27.4203C24.8101 27.1014 25.708 26.6131 26.6657 25.9554C27.6235 25.2978 28.5214 24.5504 29.3594 23.7134C30.7562 22.3183 31.8486 20.7687 32.6368 19.0648C33.4249 17.3608 33.7691 15.7913 33.6694 14.3564C32.2327 14.2567 30.6564 14.6005 28.9404 15.3877C27.2244 16.1749 25.6681 17.2661 24.2713 18.6612C23.4333 19.4982 22.685 20.3951 22.0266 21.3517C21.3681 22.3083 20.8792 23.2051 20.56 24.0422ZM26.4562 31.6952L28.9703 29.184L28.6411 27.51C28.1223 27.8687 27.6035 28.1925 27.0847 28.4815C26.566 28.7705 26.0272 29.0545 25.4685 29.3335L26.4562 31.6952ZM35.8243 12.1741C36.2034 14.5856 35.969 16.9323 35.121 19.2142C34.2729 21.4962 32.8114 23.6735 30.7362 25.7462L31.3348 28.7057C31.4146 29.1043 31.3947 29.493 31.2749 29.8716C31.1552 30.2503 30.9557 30.5791 30.6763 30.8581L25.6481 35.8804L23.134 29.9912L18.0159 24.8792L12.1197 22.3681L17.118 17.3458C17.3974 17.0668 17.7316 16.8675 18.1207 16.7479C18.5098 16.6283 18.9039 16.6084 19.3029 16.6881L22.266 17.286C24.3412 15.2133 26.5161 13.7485 28.7908 12.8915C31.0654 12.0346 33.41 11.7954 35.8243 12.1741ZM14.2448 28.6758C14.9431 27.9783 15.7961 27.6246 16.8038 27.6146C17.8114 27.6046 18.6644 27.9484 19.3628 28.6459C20.0612 29.3435 20.4054 30.1955 20.3954 31.2019C20.3854 32.2084 20.0312 33.0604 19.3329 33.7579C18.834 34.2562 18.001 34.6846 16.8337 35.0434C15.6664 35.4021 14.0552 35.721 12 36C12.2793 33.9472 12.5986 32.3379 12.9578 31.172C13.3169 30.0061 13.7459 29.1741 14.2448 28.6758ZM15.9508 30.3499C15.7512 30.5492 15.5517 30.913 15.3522 31.4411C15.1526 31.9692 15.013 32.5023 14.9331 33.0404C15.4719 32.9607 16.0056 32.8262 16.5344 32.6369C17.0632 32.4475 17.4273 32.2532 17.6268 32.0539C17.8663 31.8148 17.996 31.5258 18.0159 31.187C18.0359 30.8482 17.9261 30.5592 17.6867 30.32C17.4473 30.0809 17.1579 29.9663 16.8187 29.9763C16.4795 29.9862 16.1902 30.1108 15.9508 30.3499Z" fill="#EBCC19"/>
</g>
<defs>
<clipPath id="clip0_412_34">
<rect width="48" height="48" fill="white"/>
</clipPath>
</defs>
</svg>
