<svg width="80" height="80" viewBox="0 0 80 80" fill="none" xmlns="http://www.w3.org/2000/svg">
<rect width="80" height="80" rx="20" fill="#CE5E14"/>
<path d="M27.1832 33.9349L31.0741 35.5791C31.5397 34.6491 32.0219 33.7522 32.5207 32.8886C33.0196 32.025 33.5683 31.1614 34.1669 30.2977L31.3734 29.7497L27.1832 33.9349ZM34.2667 38.0703L39.9534 43.7005C41.3501 43.169 42.8466 42.3552 44.4429 41.2591C46.0391 40.1629 47.5356 38.9173 48.9324 37.5223C51.2603 35.1971 53.081 32.6146 54.3946 29.7746C55.7082 26.9346 56.2819 24.3188 56.1156 21.9273C53.7212 21.7612 51.094 22.3342 48.234 23.6462C45.374 24.9582 42.7801 26.7768 40.4522 29.102C39.0555 30.497 37.8084 31.9918 36.7109 33.5861C35.6135 35.1805 34.7987 36.6752 34.2667 38.0703ZM41.9986 32.0167C41.9986 30.9039 42.381 29.9656 43.1459 29.2016C43.9108 28.4376 44.8586 28.0557 45.9893 28.0557C47.1199 28.0557 48.0677 28.4376 48.8326 29.2016C49.5975 29.9656 49.9799 30.9039 49.9799 32.0167C49.9799 33.1294 49.5975 34.0678 48.8326 34.8317C48.0677 35.5957 47.1199 35.9777 45.9893 35.9777C44.8586 35.9777 43.9108 35.5957 43.1459 34.8317C42.381 34.0678 41.9986 33.1294 41.9986 32.0167ZM44.0937 50.8253L48.2839 46.6401L47.7352 43.8499C46.8705 44.4478 46.0059 44.9876 45.1412 45.4692C44.2766 45.9508 43.3787 46.4242 42.4475 46.8892L44.0937 50.8253ZM59.7072 18.2901C60.339 22.3093 59.9483 26.2205 58.5349 30.0237C57.1216 33.827 54.6856 37.4558 51.227 40.9103L52.2247 45.8429C52.3577 46.5072 52.3244 47.1549 52.1249 47.786C51.9254 48.4171 51.5928 48.9652 51.1272 49.4302L42.7468 57.8007L38.5566 47.9853L30.0266 39.4654L20.1995 35.2802L28.5301 26.9097C28.9956 26.4447 29.5527 26.1125 30.2012 25.9132C30.8496 25.7139 31.5064 25.6807 32.1716 25.8136L37.11 26.81C40.5686 23.3556 44.1935 20.9142 47.9846 19.4859C51.7757 18.0576 55.6833 17.659 59.7072 18.2901ZM23.7413 45.7931C24.9052 44.6305 26.3269 44.0409 28.0063 44.0243C29.6857 44.0077 31.1074 44.5807 32.2713 45.7432C33.4353 46.9058 34.0089 48.3258 33.9923 50.0032C33.9757 51.6806 33.3854 53.1006 32.2214 54.2632C31.39 55.0936 30.0016 55.8077 28.0562 56.4056C26.1107 57.0035 23.4253 57.535 20 58C20.4656 54.5787 20.9977 51.8965 21.5963 49.9534C22.1949 48.0102 22.9099 46.6235 23.7413 45.7931ZM26.5846 48.5832C26.2521 48.9154 25.9195 49.5216 25.5869 50.4018C25.2544 51.282 25.0216 52.1706 24.8886 53.0674C25.7865 52.9345 26.6761 52.7103 27.5573 52.3948C28.4386 52.0792 29.0455 51.7554 29.3781 51.4232C29.7771 51.0246 29.9933 50.543 30.0266 49.9783C30.0598 49.4136 29.8769 48.932 29.4778 48.5334C29.0788 48.1348 28.5966 47.9438 28.0312 47.9604C27.4659 47.977 26.9837 48.1846 26.5846 48.5832Z" fill="#172028"/>
<circle cx="46" cy="32" r="2" fill="#CE5E14"/>
</svg>
